HIERARCHY
ROOT Hips
{
 OFFSET 0.000000 0.000000 0.000000
 CHANNELS 6 Xposition Yposition Zposition Yrotation Xrotation Zrotation
 JOINT Chest
 {
  OFFSET 0.000000 9.585900 0.002600
  CHANNELS 3 Yrotation Xrotation Zrotation
  JOINT Chest2
  {
   OFFSET 0.000000 9.601200 -0.005300
   CHANNELS 3 Yrotation Xrotation Zrotation
   JOINT Chest3
   {
    OFFSET 0.000000 9.561800 0.000000
    CHANNELS 3 Yrotation Xrotation Zrotation
    JOINT Chest4
    {
     OFFSET 0.000000 9.552100 0.000000
     CHANNELS 3 Yrotation Xrotation Zrotation
     JOINT Neck
     {
      OFFSET 0.000000 14.453000 0.000000
      CHANNELS 3 Yrotation Xrotation Zrotation
      JOINT Head
      {
       OFFSET 0.000000 8.936500 -0.011300
       CHANNELS 3 Yrotation Xrotation Zrotation
       End Site
       {
        OFFSET 0.000000 17.073600 -0.006000
       }
      }
     }
     JOINT RightCollar
     {
      OFFSET -2.921100 9.558500 0.000000
      CHANNELS 3 Yrotation Xrotation Zrotation
      JOINT RightShoulder
      {
       OFFSET -13.519700 0.000000 0.000000
       CHANNELS 3 Yrotation Xrotation Zrotation
       JOINT RightElbow
       {
        OFFSET 0.000000 -29.696600 0.000000
        CHANNELS 3 Yrotation Xrotation Zrotation
        JOINT RightWrist
        {
         OFFSET 0.000000 -24.004700 0.000000
         CHANNELS 3 Yrotation Xrotation Zrotation
         End Site
         {
          OFFSET 0.000000 -17.728500 0.000000
         }
        }
       }
      }
     }
     JOINT LeftCollar
     {
      OFFSET 2.921100 9.558500 0.000000
      CHANNELS 3 Yrotation Xrotation Zrotation
      JOINT LeftShoulder
      {
       OFFSET 13.519700 0.000000 0.000000
       CHANNELS 3 Yrotation Xrotation Zrotation
       JOINT LeftElbow
       {
        OFFSET 0.000000 -29.696600 0.000000
        CHANNELS 3 Yrotation Xrotation Zrotation
        JOINT LeftWrist
        {
         OFFSET 0.000000 -24.004700 0.000000
         CHANNELS 3 Yrotation Xrotation Zrotation
         End Site
         {
          OFFSET 0.000000 -17.728500 0.000000
         }
        }
       }
      }
     }
    }
   }
  }
 }
 JOINT RightHip
 {
  OFFSET -7.771700 -0.012900 -0.001300
  CHANNELS 3 Yrotation Xrotation Zrotation
  JOINT RightKnee
  {
   OFFSET 0.000000 -40.869800 0.001200
   CHANNELS 3 Yrotation Xrotation Zrotation
   JOINT RightAnkle
   {
    OFFSET 0.000000 -39.717900 0.002100
    CHANNELS 3 Yrotation Xrotation Zrotation
    JOINT RightToe
    {
     OFFSET 0.000000 -4.965400 11.033500
     CHANNELS 3 Yrotation Xrotation Zrotation
     End Site
     {
      OFFSET 0.000000 -1.423100 5.872300
     }
    }
   }
  }
 }
 JOINT LeftHip
 {
  OFFSET 7.771700 -0.012900 -0.001300
  CHANNELS 3 Yrotation Xrotation Zrotation
  JOINT LeftKnee
  {
   OFFSET 0.000000 -40.869800 0.001200
   CHANNELS 3 Yrotation Xrotation Zrotation
   JOINT LeftAnkle
   {
    OFFSET 0.000000 -39.717900 0.002100
    CHANNELS 3 Yrotation Xrotation Zrotation
    JOINT LeftToe
    {
     OFFSET 0.000000 -4.965400 11.033500
     CHANNELS 3 Yrotation Xrotation Zrotation
     End Site
     {
      OFFSET 0.000000 -1.423100 5.872300
     }
    }
   }
  }
 }
}
MOTION
Frames: 7
Frame Time: 0.008333
0.000000 85.388000 0.000000 0.000000 -5.767877 0.000000 0.000000 11.653817 0.000000 0.000000 -5.885947 0.000000 0.000000 -0.000000 0.000000 0.000000 -0.000000 0.000000 0.000000 12.528835 0.000000 0.000000 0.711642 0.000000 0.000000 -0.000000 0.000000 0.000000 0.000000 -90.000000 0.000000 -2.309062 0.000000 0.000000 2.309062 0.000000 0.000000 -0.000000 0.000000 0.000000 -0.000000 90.000000 0.000000 -2.309062 0.000000 0.000000 2.309062 0.000000 0.000000 8.520406 0.000000 0.000000 1.905762 0.000000 -0.000000 -4.658285 0.000000 0.000000 -0.000000 0.000000 0.000000 8.520406 0.000000 0.000000 1.905762 0.000000 -0.000000 -4.658285 0.000000 0.000000 -0.000000 0.000000
-89.423481 44.188120 17.755851 173.220592 -22.727357 -2.312386 0.306651 18.245779 2.800090 -0.025296 2.093893 0.358145 -0.034964 3.463479 0.592198 0.142414 15.930880 2.765870 -0.927433 14.395584 -4.572417 0.045295 -10.495653 -4.643437 9.059445 1.475867 -4.410240 -2.970877 -4.908466 -4.744536 -104.050646 -81.228113 123.490691 -6.417426 -2.222551 -48.476832 -10.323516 -0.867061 -5.021078 15.165881 -0.041985 5.000085 163.406257 -72.473703 175.349616 16.107748 5.845050 41.373969 -5.115882 -69.008415 18.869706 -148.582227 71.522675 -147.019130 -8.943364 -20.754363 6.118414 0.050649 -0.602967 0.033802 4.468292 -52.964441 1.609585 176.163882 57.984291 175.851196 -3.000959 -42.382827 4.015549 0.083139 0.152934 0.031452
-89.432115 44.189926 17.759268 173.210058 -22.717728 -2.301900 0.318573 18.234291 2.801453 -0.024960 2.092499 0.358226 -0.034470 3.461272 0.592407 0.145238 15.926171 2.767848 -0.923509 14.366297 -4.569802 0.052382 -10.545270 -4.640818 9.045658 1.482014 -4.394181 -2.963608 -4.908609 -4.761917 -104.217770 -81.197003 123.698840 -6.403379 -2.229577 -48.476326 -10.348081 -0.868202 -5.014213 15.215976 -0.018679 5.042488 163.414965 -72.441730 175.350732 16.119828 5.855566 41.384501 -5.051851 -69.019087 18.795618 -148.502287 71.519182 -146.936422 -8.885807 -20.737144 6.117548 0.034071 -0.602035 0.027396 4.486561 -52.972528 1.591937 176.153380 57.989293 175.836271 -3.004450 -42.381174 4.018798 0.084252 0.157034 0.033261
-89.440456 44.192380 17.763657 173.197302 -22.707789 -2.302432 0.338599 18.222886 2.817176 -0.024754 2.091203 0.358215 -0.034003 3.459148 0.592324 0.147158 15.921822 2.768807 -0.919461 14.336919 -4.563757 0.059167 -10.590058 -4.635814 9.031560 1.481891 -4.358613 -2.953036 -4.909667 -4.787922 -104.304073 -81.194464 123.790699 -6.395594 -2.218121 -48.478845 -10.356874 -0.878071 -4.995344 15.263091 0.011873 5.076522 163.376282 -72.412365 175.398434 16.138790 5.870783 41.413146 -5.029203 -69.028273 18.768296 -148.397379 71.513970 -146.827660 -8.838845 -20.713907 6.109071 0.017736 -0.590032 0.022761 4.491625 -52.982572 1.592939 176.152200 57.993550 175.832143 -3.003333 -42.381630 4.017550 0.086389 0.162232 0.037930
-89.450211 44.196412 17.766646 173.194449 -22.711677 -2.306925 0.346502 18.224040 2.832664 -0.024453 2.089577 0.358170 -0.025775 3.445553 0.602650 0.139252 15.927523 2.760619 -0.913625 14.312778 -4.557596 0.061672 -10.611204 -4.629475 9.020660 1.492618 -4.358729 -2.950407 -4.920558 -4.778189 -104.372822 -81.193689 123.861948 -6.387904 -2.205137 -48.475211 -10.359779 -0.877888 -4.993902 15.299238 0.028637 5.108959 163.362192 -72.391363 175.431193 16.166353 5.883644 41.457038 -5.030141 -69.022656 18.764961 -148.351316 71.516700 -146.781796 -8.847997 -20.681288 6.103624 0.039205 -0.605802 0.033540 4.486405 -52.978606 1.593779 176.155293 57.997713 175.831946 -3.001421 -42.377573 4.021930 0.093667 0.162445 0.037596
-89.464672 44.200951 17.770610 173.183171 -22.713117 -2.290879 0.365695 18.209820 2.844710 -0.026528 2.088281 0.356166 -0.034494 3.455184 0.589579 0.147106 15.919018 2.766941 -0.910624 14.295020 -4.549607 0.062377 -10.623915 -4.618788 9.010894 1.504474 -4.342428 -2.956936 -4.933217 -4.780979 -104.432829 -81.197024 123.925627 -6.379743 -2.207806 -48.468155 -10.362076 -0.873325 -4.992807 15.304163 0.041177 5.113767 163.377285 -72.384269 175.430999 16.180977 5.885838 41.543333 -4.941760 -69.024707 18.660586 -148.353907 71.531023 -146.770252 -8.840489 -20.647668 6.094004 0.046986 -0.622558 0.039552 4.511763 -52.971503 1.564536 176.138797 58.007408 175.809066 -3.009906 -42.375701 4.029838 0.098560 0.166459 0.037911
-89.483553 44.206084 17.776078 173.172033 -22.710124 -2.260444 0.373896 18.199863 2.825320 -0.023022 2.082823 0.358930 -0.041634 3.459246 0.585911 0.154097 15.903753 2.771222 -0.915704 14.302709 -4.547562 0.062292 -10.628060 -4.612357 9.009622 1.509291 -4.296006 -2.975321 -4.945759 -4.779657 -104.463611 -81.229414 123.963689 -6.371777 -2.205847 -48.455544 -10.358708 -0.860831 -4.991295 15.358414 0.047492 5.157404 163.216548 -72.368614 175.558200 16.196762 5.883983 41.651294 -4.703410 -69.025434 18.372493 -148.499155 71.581403 -146.863222 -8.775082 -20.660706 6.087857 -0.000996 -0.600388 0.014548 4.556614 -52.968873 1.510560 176.121737 58.019822 175.781882 -3.027370 -42.365499 4.045358 0.103439 0.167655 0.040869
